<svg width="27" height="12" viewBox="0 0 27 12" fill="none" xmlns="http://www.w3.org/2000/svg">
<path fill-rule="evenodd" clip-rule="evenodd" d="M1.12774 7.24148C1.06642 7.3129 1.02277 7.39775 1.0003 7.48917C0.97478 7.58586 0.97516 7.68629 1.00303 7.78052C1.02936 7.87552 1.08318 7.96062 1.15773 8.02512C2.16301 8.94209 2.75533 9.46045 3.22803 9.87173L3.65153 10.2421L3.65128 10.2431L3.95082 10.5031C4.29788 10.8027 4.66076 11.1167 5.22891 11.6287L5.24137 11.6402L5.25557 11.6491C5.53996 11.8256 5.86513 11.9259 6.20233 11.9415C6.53541 11.957 6.87053 11.8903 7.1766 11.7456L24.3574 6.25449C24.7989 6.12557 25.2242 5.94631 25.6248 5.72023C26.0157 5.54416 26.3303 5.22591 26.5029 4.83085C26.6744 4.44129 26.6908 4.00092 26.5486 3.5997C26.5242 3.50374 26.4734 3.41652 26.402 3.34794L26.3946 3.34081C25.6863 2.73287 25.1479 2.42528 24.4724 2.37107C23.816 2.3188 23.0472 2.50788 21.892 2.81316L21.8886 2.81433L16.3843 4.38145C15.9389 4.18254 15.4685 3.97698 14.9729 3.76479L14.9058 3.73675C14.3648 3.50189 13.8021 3.25922 13.2321 3.00118L13.2302 3.00067L12.1989 2.54642L12.196 2.54565C10.8522 1.9551 9.44837 1.33732 8.06469 0.717626C7.86899 0.627805 7.65624 0.58117 7.44091 0.580892C7.22556 0.57957 7.01215 0.621737 6.81348 0.704867L6.03823 0.965654C5.88599 0.997965 5.74458 1.06878 5.62751 1.17133C5.51045 1.27389 5.42164 1.40475 5.36957 1.55142L5.36472 1.56979C5.33514 1.68295 5.33615 1.80193 5.36766 1.91457C5.39917 2.0272 5.46005 2.12944 5.54405 2.21081L9.97005 6.68788L7.0683 7.63054L5.42496 7.09331L3.53664 6.48107L3.53374 6.48031C3.4253 6.44835 3.31003 6.44768 3.20122 6.47837L3.1944 6.48071L1.36562 7.08086L1.36002 7.08249C1.27108 7.11632 1.19147 7.17082 1.12774 7.24148Z" fill="#01A4FF"/>
</svg>
