<svg width="317" height="168" viewBox="0 0 317 168" fill="none" xmlns="http://www.w3.org/2000/svg">
    <g clip-path="url(#clip0_43_565)">
        <rect width="317" height="168" fill="white"/>
        <rect x="-0.159668" width="319.22" height="301.968" fill="url(#paint0_radial_43_565)"/>
        <path d="M8.7101 120.471V93.0004H21.5036C24.6954 93.0004 27.1808 93.6152 28.9599 94.8448C30.7389 96.0745 31.6284 97.8274 31.6284 100.104C31.6284 102.353 30.7912 104.106 29.1169 105.362C27.4425 106.592 25.2186 107.207 22.4454 107.207L23.191 105.558C26.2782 105.558 28.6721 106.173 30.3727 107.403C32.0732 108.632 32.9235 110.412 32.9235 112.74C32.9235 115.147 32.0078 117.044 30.1764 118.43C28.3712 119.791 25.7288 120.471 22.2492 120.471H8.7101ZM15.0283 115.762H22.0137C23.4788 115.762 24.5907 115.474 25.3495 114.898C26.1082 114.323 26.4875 113.433 26.4875 112.23C26.4875 111.079 26.1082 110.228 25.3495 109.679C24.5907 109.103 23.4788 108.816 22.0137 108.816H15.0283V115.762ZM15.0283 104.381H20.9542C22.3408 104.381 23.3873 104.106 24.0937 103.557C24.8 102.981 25.1532 102.144 25.1532 101.045C25.1532 99.9465 24.8 99.1224 24.0937 98.573C23.3873 97.9974 22.3408 97.7096 20.9542 97.7096H15.0283V104.381ZM51.0979 120.942C48.9265 120.942 46.9119 120.589 45.0544 119.882C43.223 119.176 41.6271 118.182 40.2667 116.9C38.9324 115.618 37.8859 114.114 37.1272 112.387C36.3946 110.66 36.0283 108.776 36.0283 106.736C36.0283 104.695 36.3946 102.811 37.1272 101.085C37.8859 99.3579 38.9455 97.8535 40.3059 96.5716C41.6664 95.2896 43.2623 94.2954 45.0937 93.589C46.925 92.8827 48.9134 92.5295 51.0587 92.5295C53.2302 92.5295 55.2185 92.8827 57.0237 93.589C58.8551 94.2954 60.438 95.2896 61.7722 96.5716C63.1327 97.8535 64.1923 99.3579 64.951 101.085C65.7097 102.785 66.0891 104.669 66.0891 106.736C66.0891 108.776 65.7097 110.673 64.951 112.426C64.1923 114.153 63.1327 115.657 61.7722 116.939C60.438 118.195 58.8551 119.176 57.0237 119.882C55.2185 120.589 53.2433 120.942 51.0979 120.942ZM51.0587 115.526C52.2883 115.526 53.4133 115.317 54.4337 114.898C55.4802 114.48 56.3958 113.878 57.1807 113.093C57.9656 112.308 58.5673 111.38 58.9859 110.307C59.4307 109.234 59.6531 108.044 59.6531 106.736C59.6531 105.428 59.4307 104.237 58.9859 103.165C58.5673 102.092 57.9656 101.163 57.1807 100.378C56.422 99.5933 55.5194 98.9916 54.4729 98.573C53.4264 98.1544 52.2883 97.9451 51.0587 97.9451C49.8291 97.9451 48.691 98.1544 47.6445 98.573C46.6242 98.9916 45.7216 99.5933 44.9367 100.378C44.1518 101.163 43.537 102.092 43.0922 103.165C42.6736 104.237 42.4643 105.428 42.4643 106.736C42.4643 108.018 42.6736 109.208 43.0922 110.307C43.537 111.38 44.1387 112.308 44.8974 113.093C45.6823 113.878 46.598 114.48 47.6445 114.898C48.691 115.317 49.8291 115.526 51.0587 115.526ZM67.7477 118.038L69.7099 113.486C70.8872 114.192 72.143 114.741 73.4773 115.134C74.8377 115.5 76.159 115.709 77.4409 115.762C78.749 115.788 79.9264 115.657 80.9729 115.369C82.0455 115.082 82.8958 114.65 83.5237 114.074C84.1778 113.499 84.5048 112.766 84.5048 111.877C84.5048 110.83 84.0731 110.058 83.2097 109.561C82.3464 109.038 81.1952 108.776 79.7563 108.776H73.0456V103.989H79.2854C80.5673 103.989 81.5615 103.727 82.2679 103.204C83.0004 102.681 83.3667 101.961 83.3667 101.045C83.3667 100.26 83.1051 99.6326 82.5818 99.1617C82.0586 98.6646 81.3391 98.2983 80.4234 98.0628C79.5339 97.8274 78.5267 97.7227 77.4017 97.7489C76.2767 97.775 75.1125 97.9582 73.909 98.2983C72.7055 98.6384 71.5544 99.1093 70.4555 99.7111L68.5326 94.8056C70.3116 93.8899 72.1823 93.262 74.1444 92.9219C76.1328 92.5556 78.0427 92.4641 79.874 92.6472C81.7316 92.8042 83.406 93.2228 84.8972 93.903C86.3885 94.5571 87.5789 95.4204 88.4684 96.4931C89.3579 97.5657 89.8027 98.8346 89.8027 100.3C89.8027 101.608 89.4626 102.772 88.7824 103.792C88.1021 104.813 87.1472 105.598 85.9176 106.147C84.7141 106.696 83.3275 106.971 81.7577 106.971L81.9147 105.558C83.7461 105.558 85.3289 105.872 86.6632 106.5C88.0236 107.102 89.0701 107.952 89.8027 109.051C90.5614 110.124 90.9408 111.366 90.9408 112.779C90.9408 114.087 90.5876 115.265 89.8812 116.311C89.201 117.332 88.2591 118.195 87.0556 118.901C85.8522 119.608 84.4786 120.131 82.935 120.471C81.3915 120.811 79.7432 120.955 77.9903 120.903C76.2636 120.85 74.5238 120.602 72.7709 120.157C71.018 119.686 69.3436 118.98 67.7477 118.038ZM114.183 117.645V98.1806H104.764L104.647 102.183C104.568 103.884 104.45 105.493 104.293 107.01C104.163 108.528 103.953 109.914 103.666 111.17C103.378 112.4 102.998 113.446 102.527 114.31C102.083 115.173 101.52 115.788 100.84 116.154L94.0508 115.291C94.9927 115.317 95.7645 114.99 96.3662 114.31C96.9941 113.63 97.4912 112.675 97.8575 111.445C98.2238 110.189 98.4854 108.724 98.6424 107.05C98.8255 105.375 98.9563 103.557 99.0348 101.595L99.3487 93.0004H120.462V117.645H114.183ZM93.1482 126.161L93.1875 115.291H124.308V126.161H118.421V120.471H99.0348V126.161H93.1482ZM129.529 115.291C131.047 115.736 132.316 115.866 133.336 115.683C134.382 115.474 135.311 114.741 136.122 113.486L137.457 111.484L138.045 110.817L147.15 93.0004H153.39L141.695 114.741C140.648 116.704 139.406 118.208 137.967 119.254C136.554 120.301 134.997 120.89 133.297 121.02C131.596 121.177 129.83 120.877 127.999 120.118L129.529 115.291ZM137.927 116.115L125.526 93.0004H132.316L141.42 111.445L137.927 116.115ZM172.815 115.291L171.402 116.743V93.0004H177.72V116.743L176.229 115.291H187.845L186.354 116.743V93.0004H192.672V120.471H156.411V93.0004H162.729V116.743L161.277 115.291H172.815ZM218.324 93.0004H224.681V120.471H218.324V93.0004ZM205.844 120.471H199.487V93.0004H205.844V120.471ZM218.795 109.208H205.373V103.832H218.795V109.208ZM244.868 102.026C248.19 102.026 250.754 102.772 252.559 104.263C254.365 105.728 255.267 107.939 255.267 110.896C255.267 114.035 254.26 116.416 252.245 118.038C250.257 119.66 247.497 120.471 243.965 120.471H231.564V93.0004H237.882V102.026H244.868ZM243.612 115.762C245.234 115.762 246.516 115.356 247.458 114.545C248.4 113.734 248.87 112.557 248.87 111.013C248.87 109.496 248.4 108.41 247.458 107.756C246.542 107.076 245.26 106.736 243.612 106.736H237.882V115.762H243.612ZM258.76 120.471V93.0004H265.078V120.471H258.76ZM271.919 120.471V93.0004H278.237V110.896L291.345 93.0004H297.31V120.471H291.031V102.615L277.923 120.471H271.919ZM284.595 91.2344C281.979 91.2344 280.056 90.7112 278.826 89.6647C277.623 88.6182 277.008 87.14 276.982 85.2301H281.338C281.364 86.172 281.638 86.8914 282.162 87.3885C282.711 87.8595 283.522 88.0949 284.595 88.0949C285.641 88.0949 286.439 87.8595 286.989 87.3885C287.538 86.8914 287.826 86.172 287.852 85.2301H292.208C292.182 87.14 291.554 88.6182 290.324 89.6647C289.095 90.7112 287.185 91.2344 284.595 91.2344ZM21.6998 155.942C19.5806 155.942 17.6054 155.602 15.774 154.922C13.9688 154.215 12.399 153.221 11.0647 151.939C9.73044 150.657 8.68394 149.153 7.92523 147.426C7.19268 145.699 6.8264 143.803 6.8264 141.736C6.8264 139.669 7.19268 137.772 7.92523 136.045C8.68394 134.319 9.73044 132.814 11.0647 131.532C12.4252 130.25 14.008 129.269 15.8132 128.589C17.6184 127.883 19.5937 127.529 21.739 127.529C24.1198 127.529 26.2651 127.948 28.175 128.785C30.111 129.596 31.7331 130.8 33.0412 132.396L28.9599 136.163C28.018 135.09 26.9715 134.292 25.8204 133.769C24.6692 133.22 23.4134 132.945 22.053 132.945C20.771 132.945 19.5937 133.154 18.521 133.573C17.4484 133.992 16.5196 134.593 15.7347 135.378C14.9499 136.163 14.335 137.092 13.8903 138.165C13.4717 139.237 13.2624 140.428 13.2624 141.736C13.2624 143.044 13.4717 144.234 13.8903 145.307C14.335 146.38 14.9499 147.308 15.7347 148.093C16.5196 148.878 17.4484 149.48 18.521 149.898C19.5937 150.317 20.771 150.526 22.053 150.526C23.4134 150.526 24.6692 150.265 25.8204 149.741C26.9715 149.192 28.018 148.368 28.9599 147.269L33.0412 151.036C31.7331 152.632 30.111 153.849 28.175 154.686C26.2651 155.523 24.1067 155.942 21.6998 155.942ZM36.808 155.903C36.3371 155.903 35.84 155.863 35.3167 155.785C34.8197 155.706 34.2702 155.602 33.6685 155.471L34.0609 150.095C34.4272 150.199 34.8066 150.252 35.199 150.252C36.2717 150.252 37.1089 149.82 37.7106 148.957C38.3124 148.067 38.744 146.798 39.0057 145.15C39.2673 143.502 39.4373 141.5 39.5158 139.146L39.9083 128H61.0214V155.471H54.7424V131.729L56.1944 133.181H44.0681L45.3631 131.65L45.1277 138.91C45.0492 141.605 44.8661 143.999 44.5783 146.092C44.2905 148.185 43.8457 149.964 43.244 151.429C42.6422 152.894 41.8181 154.006 40.7716 154.765C39.7251 155.523 38.4039 155.903 36.808 155.903ZM73.7296 139.067H86.9548V144.012H73.7296V139.067ZM74.2005 150.369H89.1524V155.471H67.8823V128H88.6422V133.102H74.2005V150.369ZM112.497 152.645V133.181H103.078L102.96 137.183C102.882 138.884 102.764 140.493 102.607 142.01C102.476 143.528 102.267 144.914 101.979 146.17C101.692 147.4 101.312 148.446 100.841 149.31C100.396 150.173 99.834 150.788 99.1537 151.154L92.3646 150.291C93.3064 150.317 94.0782 149.99 94.68 149.31C95.3079 148.63 95.8049 147.675 96.1712 146.445C96.5375 145.189 96.7991 143.724 96.9561 142.05C97.1392 140.375 97.27 138.557 97.3485 136.595L97.6625 128H118.776V152.645H112.497ZM91.462 161.161L91.5012 150.291H122.622V161.161H116.735V155.471H97.3485V161.161H91.462Z" fill="white"/>
        <path d="M-0.159668 76.3706L317.067 -0.430969V168L-0.159668 168L-0.159668 76.3706Z" fill="url(#paint1_linear_43_565)" fill-opacity="0.65"/>
    </g>
    <defs>
        <radialGradient id="paint0_radial_43_565" cx="0" cy="0" r="1" gradientUnits="userSpaceOnUse" gradientTransform="translate(-0.159658 301.968) rotate(-43.4092) scale(439.416 464.519)">
            <stop offset="0.18" stop-color="#389CC9"/>
            <stop offset="0.793964" stop-color="#00A3FF"/>
        </radialGradient>
        <linearGradient id="paint1_linear_43_565" x1="-0.159668" y1="122.185" x2="317.067" y2="122.185" gradientUnits="userSpaceOnUse">
            <stop stop-color="white" stop-opacity="0"/>
            <stop offset="1" stop-color="white"/>
        </linearGradient>
        <clipPath id="clip0_43_565">
            <rect width="317" height="168" fill="white"/>
        </clipPath>
    </defs>
</svg>
