<svg width="78" height="74" viewBox="0 0 78 74" fill="none" xmlns="http://www.w3.org/2000/svg">
    <g clip-path="url(#clip0_43_556)">
        <rect width="77.5737" height="73.8797" fill="white"/>
        <rect x="-0.0390625" width="78.1004" height="73.8797" fill="url(#paint0_radial_43_556)"/>
        <path d="M-0.0390625 33.6305L77.5737 -0.105408V73.8798H-0.0390625L-0.0390625 33.6305Z" fill="url(#paint1_linear_43_556)" fill-opacity="0.5"/>
        <path d="M2.66491 61.5577V54.8367H5.79496C6.57588 54.8367 7.18397 54.9871 7.61923 55.288C8.05449 55.5888 8.27212 56.0177 8.27212 56.5746C8.27212 57.125 8.06729 57.5539 7.65763 57.8611C7.24798 58.162 6.7039 58.3124 6.0254 58.3124L6.20782 57.9091C6.96313 57.9091 7.54882 58.0596 7.96488 58.3604C8.38094 58.6613 8.58897 59.0965 8.58897 59.6662C8.58897 60.2551 8.36494 60.7192 7.91687 61.0584C7.47521 61.3913 6.82871 61.5577 5.97739 61.5577H2.66491ZM4.21073 60.4055H5.91978C6.27823 60.4055 6.55027 60.3351 6.7359 60.1943C6.92153 60.0535 7.01434 59.8358 7.01434 59.5414C7.01434 59.2597 6.92153 59.0517 6.7359 58.9173C6.55027 58.7765 6.27823 58.7061 5.91978 58.7061H4.21073V60.4055ZM4.21073 57.6211H5.66054C5.99979 57.6211 6.25583 57.5539 6.42866 57.4195C6.60148 57.2787 6.68789 57.0738 6.68789 56.805C6.68789 56.5362 6.60148 56.3345 6.42866 56.2001C6.25583 56.0593 5.99979 55.9889 5.66054 55.9889H4.21073V57.6211ZM13.0355 61.6729C12.5043 61.6729 12.0114 61.5865 11.5569 61.4137C11.1089 61.2408 10.7184 60.9976 10.3856 60.684C10.0591 60.3703 9.80307 60.0023 9.61744 59.5798C9.43822 59.1573 9.3486 58.6965 9.3486 58.1972C9.3486 57.6979 9.43822 57.2371 9.61744 56.8146C9.80307 56.3921 10.0623 56.0241 10.3952 55.7104C10.728 55.3968 11.1185 55.1536 11.5665 54.9807C12.0146 54.8079 12.5011 54.7215 13.0259 54.7215C13.5572 54.7215 14.0437 54.8079 14.4853 54.9807C14.9334 55.1536 15.3207 55.3968 15.6471 55.7104C15.98 56.0241 16.2392 56.3921 16.4248 56.8146C16.6105 57.2307 16.7033 57.6915 16.7033 58.1972C16.7033 58.6965 16.6105 59.1605 16.4248 59.5894C16.2392 60.0119 15.98 60.3799 15.6471 60.6936C15.3207 61.0008 14.9334 61.2408 14.4853 61.4137C14.0437 61.5865 13.5604 61.6729 13.0355 61.6729ZM13.0259 60.3479C13.3268 60.3479 13.602 60.2967 13.8517 60.1943C14.1077 60.0919 14.3317 59.9446 14.5238 59.7526C14.7158 59.5606 14.863 59.3334 14.9654 59.0709C15.0742 58.8085 15.1286 58.5172 15.1286 58.1972C15.1286 57.8771 15.0742 57.5859 14.9654 57.3235C14.863 57.061 14.7158 56.8338 14.5238 56.6418C14.3381 56.4497 14.1173 56.3025 13.8613 56.2001C13.6052 56.0977 13.3268 56.0465 13.0259 56.0465C12.7251 56.0465 12.4467 56.0977 12.1906 56.2001C11.941 56.3025 11.7201 56.4497 11.5281 56.6418C11.3361 56.8338 11.1857 57.061 11.0769 57.3235C10.9744 57.5859 10.9232 57.8771 10.9232 58.1972C10.9232 58.5108 10.9744 58.8021 11.0769 59.0709C11.1857 59.3334 11.3329 59.5606 11.5185 59.7526C11.7105 59.9446 11.9346 60.0919 12.1906 60.1943C12.4467 60.2967 12.7251 60.3479 13.0259 60.3479ZM17.1091 60.9624L17.5891 59.8486C17.8772 60.0215 18.1844 60.1559 18.5109 60.2519C18.8437 60.3415 19.167 60.3927 19.4806 60.4055C19.8007 60.4119 20.0887 60.3799 20.3447 60.3095C20.6072 60.2391 20.8152 60.1335 20.9688 59.9927C21.1289 59.8518 21.2089 59.6726 21.2089 59.455C21.2089 59.1989 21.1033 59.0101 20.892 58.8885C20.6808 58.7605 20.3992 58.6965 20.0471 58.6965H18.4053V57.5251H19.9319C20.2455 57.5251 20.4888 57.4611 20.6616 57.3331C20.8408 57.205 20.9304 57.029 20.9304 56.805C20.9304 56.613 20.8664 56.4593 20.7384 56.3441C20.6104 56.2225 20.4344 56.1329 20.2103 56.0753C19.9927 56.0177 19.7463 55.9921 19.471 55.9985C19.1958 56.0049 18.9109 56.0497 18.6165 56.1329C18.3221 56.2161 18.0404 56.3313 17.7716 56.4785L17.3011 55.2784C17.7364 55.0543 18.194 54.9007 18.6741 54.8175C19.1606 54.7279 19.6278 54.7055 20.0759 54.7503C20.5304 54.7887 20.94 54.8911 21.3049 55.0575C21.6697 55.2176 21.961 55.4288 22.1786 55.6912C22.3962 55.9537 22.5051 56.2641 22.5051 56.6226C22.5051 56.9426 22.4218 57.2275 22.2554 57.4771C22.089 57.7267 21.8554 57.9188 21.5545 58.0532C21.2601 58.1876 20.9208 58.2548 20.5368 58.2548L20.5752 57.9091C21.0232 57.9091 21.4105 57.986 21.7369 58.1396C22.0698 58.2868 22.3258 58.4948 22.5051 58.7637C22.6907 59.0261 22.7835 59.3302 22.7835 59.6758C22.7835 59.9959 22.6971 60.2839 22.5243 60.5399C22.3578 60.7896 22.1274 61.0008 21.833 61.1736C21.5385 61.3464 21.2025 61.4745 20.8248 61.5577C20.4472 61.6409 20.0439 61.6761 19.615 61.6633C19.1926 61.6505 18.7669 61.5897 18.3381 61.4809C17.9092 61.3657 17.4995 61.1928 17.1091 60.9624ZM28.4699 60.8664V56.1041H26.1656L26.1368 57.0834C26.1176 57.4995 26.0888 57.8931 26.0504 58.2644C26.0184 58.6357 25.9672 58.9749 25.8968 59.2821C25.8263 59.583 25.7335 59.839 25.6183 60.0503C25.5095 60.2615 25.3719 60.4119 25.2055 60.5015L23.5444 60.2903C23.7748 60.2967 23.9637 60.2167 24.1109 60.0503C24.2645 59.8838 24.3861 59.6502 24.4757 59.3494C24.5654 59.0421 24.6294 58.6837 24.6678 58.274C24.7126 57.8643 24.7446 57.4195 24.7638 56.9394L24.8406 54.8367H30.0061V60.8664H28.4699ZM23.3236 62.9499L23.3332 60.2903H30.9471V62.9499H29.5069V61.5577H24.7638V62.9499H23.3236ZM32.2246 60.2903C32.5958 60.3991 32.9063 60.4311 33.1559 60.3863C33.412 60.3351 33.6392 60.1559 33.8376 59.8486L34.1641 59.359L34.3081 59.1957L36.5356 54.8367H38.0622L35.201 60.1559C34.945 60.6359 34.6409 61.004 34.2889 61.26C33.9432 61.5161 33.5624 61.6601 33.1463 61.6921C32.7303 61.7305 32.2982 61.6569 31.8501 61.4713L32.2246 60.2903ZM34.2793 60.4919L31.2453 54.8367H32.9063L35.1338 59.3494L34.2793 60.4919ZM42.8148 60.2903L42.4691 60.6455V54.8367H44.015V60.6455L43.6501 60.2903H46.4921L46.1273 60.6455V54.8367H47.6731V61.5577H38.8014V54.8367H40.3472V60.6455L39.992 60.2903H42.8148ZM53.9491 54.8367H55.5045V61.5577H53.9491V54.8367ZM50.8958 61.5577H49.3404V54.8367H50.8958V61.5577ZM54.0643 58.8021H50.7806V57.4867H54.0643V58.8021ZM60.4433 57.045C61.2562 57.045 61.8835 57.2275 62.3252 57.5923C62.7668 57.9508 62.9877 58.4916 62.9877 59.2149C62.9877 59.9831 62.7412 60.5655 62.2484 60.9624C61.7619 61.3592 61.0866 61.5577 60.2225 61.5577H57.1884V54.8367H58.7343V57.045H60.4433ZM60.1361 60.4055C60.5329 60.4055 60.8466 60.3063 61.077 60.1079C61.3074 59.9094 61.4226 59.6214 61.4226 59.2437C61.4226 58.8725 61.3074 58.6069 61.077 58.4468C60.853 58.2804 60.5393 58.1972 60.1361 58.1972H58.7343V60.4055H60.1361ZM63.8422 61.5577V54.8367H65.388V61.5577H63.8422ZM67.0617 61.5577V54.8367H68.6076V59.2149L71.8144 54.8367H73.2738V61.5577H71.7376V57.189L68.5308 61.5577H67.0617ZM70.163 54.4046C69.5229 54.4046 69.0524 54.2766 68.7516 54.0206C68.4571 53.7645 68.3067 53.4029 68.3003 52.9356H69.3661C69.3725 53.1661 69.4397 53.3421 69.5677 53.4637C69.7021 53.5789 69.9005 53.6365 70.163 53.6365C70.419 53.6365 70.6143 53.5789 70.7487 53.4637C70.8831 53.3421 70.9535 53.1661 70.9599 52.9356H72.0257C72.0193 53.4029 71.8656 53.7645 71.5648 54.0206C71.2639 54.2766 70.7967 54.4046 70.163 54.4046ZM5.84297 70.6729C5.3245 70.6729 4.84123 70.5897 4.39316 70.4233C3.9515 70.2504 3.56744 70.0072 3.24099 69.6936C2.91455 69.3799 2.65851 69.0119 2.47288 68.5894C2.29366 68.1669 2.20404 67.7029 2.20404 67.1972C2.20404 66.6915 2.29366 66.2275 2.47288 65.805C2.65851 65.3825 2.91455 65.0145 3.24099 64.7008C3.57384 64.3872 3.9611 64.1471 4.40276 63.9807C4.84443 63.8079 5.3277 63.7215 5.85257 63.7215C6.43506 63.7215 6.95993 63.8239 7.4272 64.0287C7.90087 64.2272 8.29773 64.5216 8.61777 64.9121L7.61923 65.8338C7.3888 65.5714 7.13276 65.3761 6.85112 65.2481C6.56948 65.1137 6.26223 65.0465 5.92938 65.0465C5.61574 65.0465 5.3277 65.0977 5.06526 65.2001C4.80282 65.3025 4.57559 65.4497 4.38356 65.6418C4.19153 65.8338 4.04111 66.061 3.93229 66.3235C3.82988 66.5859 3.77867 66.8771 3.77867 67.1972C3.77867 67.5172 3.82988 67.8085 3.93229 68.0709C4.04111 68.3334 4.19153 68.5606 4.38356 68.7526C4.57559 68.9446 4.80282 69.0919 5.06526 69.1943C5.3277 69.2967 5.61574 69.3479 5.92938 69.3479C6.26223 69.3479 6.56948 69.2839 6.85112 69.1559C7.13276 69.0215 7.3888 68.8198 7.61923 68.551L8.61777 69.4727C8.29773 69.8632 7.90087 70.1608 7.4272 70.3657C6.95993 70.5705 6.43186 70.6729 5.84297 70.6729ZM9.53936 70.6633C9.42414 70.6633 9.30252 70.6537 9.1745 70.6345C9.05289 70.6153 8.91847 70.5897 8.77125 70.5577L8.86726 69.2423C8.95687 69.2679 9.04969 69.2807 9.1457 69.2807C9.40814 69.2807 9.61297 69.1751 9.76019 68.9638C9.90741 68.7462 10.013 68.4358 10.077 68.0325C10.141 67.6293 10.1827 67.1396 10.2019 66.5635L10.2979 63.8367H15.4634V70.5577H13.9272V64.7488L14.2824 65.1041H11.3156L11.6325 64.7296L11.5749 66.5059C11.5556 67.1652 11.5108 67.7509 11.4404 68.2629C11.37 68.775 11.2612 69.2103 11.114 69.5687C10.9668 69.9272 10.7651 70.1992 10.5091 70.3849C10.2531 70.5705 9.92981 70.6633 9.53936 70.6633ZM18.5726 66.5443H21.8083V67.7541H18.5726V66.5443ZM18.6878 69.3095H22.346V70.5577H17.142V63.8367H22.2211V65.0849H18.6878V69.3095ZM28.0574 69.8664V65.1041H25.753L25.7242 66.0834C25.705 66.4995 25.6762 66.8931 25.6378 67.2644C25.6058 67.6357 25.5546 67.9749 25.4842 68.2821C25.4138 68.583 25.321 68.839 25.2058 69.0503C25.0969 69.2615 24.9593 69.4119 24.7929 69.5015L23.1319 69.2903C23.3623 69.2967 23.5511 69.2167 23.6983 69.0503C23.852 68.8838 23.9736 68.6502 24.0632 68.3494C24.1528 68.0421 24.2168 67.6837 24.2552 67.274C24.3 66.8643 24.332 66.4195 24.3512 65.9394L24.428 63.8367H29.5936V69.8664H28.0574ZM22.911 71.9499L22.9206 69.2903H30.5345V71.9499H29.0943V70.5577H24.3512V71.9499H22.911Z" fill="white"/>
    </g>
    <defs>
        <radialGradient id="paint0_radial_43_556" cx="0" cy="0" r="1" gradientUnits="userSpaceOnUse" gradientTransform="translate(-0.0390602 73.8797) rotate(-43.4092) scale(107.508 113.649)">
            <stop offset="0.18" stop-color="#389CC9"/>
            <stop offset="0.793964" stop-color="#00A3FF"/>
        </radialGradient>
        <linearGradient id="paint1_linear_43_556" x1="-0.0390625" y1="53.7552" x2="77.5737" y2="53.7552" gradientUnits="userSpaceOnUse">
            <stop stop-color="white" stop-opacity="0"/>
            <stop offset="1" stop-color="white"/>
        </linearGradient>
        <clipPath id="clip0_43_556">
            <rect width="77.5737" height="73.8797" fill="white"/>
        </clipPath>
    </defs>
</svg>
