<svg width="36" height="36" viewBox="0 0 36 36" fill="none" xmlns="http://www.w3.org/2000/svg">
<path d="M32.5488 3.23695C33.4462 3.41419 34.2471 3.86611 34.8145 4.51537C35.3818 5.16462 35.6804 5.97084 35.6589 6.79602V13.9676C35.6576 18.659 34.0902 23.2422 31.1591 27.1251C28.228 31.008 24.068 34.0121 19.2167 35.7491C18.3224 36.0492 17.3376 36.0492 16.4433 35.7491C11.592 34.0121 7.43198 31.008 4.50091 27.1251C1.56984 23.2422 0.00238006 18.659 0.00107877 13.9676V6.72484C-0.0203543 5.89966 0.278159 5.09344 0.845523 4.44419C1.41289 3.79493 2.21382 3.343 3.11124 3.16577L16.9782 0.407484C17.5376 0.283117 18.1224 0.283117 18.6818 0.407484L32.5488 3.23695Z" fill="#5AC8FA"/>
<path d="M16.3046 23.1145C15.7877 23.1173 15.2901 22.9385 14.9179 22.6162L10.4013 18.6301C10.2156 18.4646 10.0682 18.2678 9.96766 18.051C9.86709 17.8341 9.81531 17.6015 9.81531 17.3666C9.81531 17.1317 9.86709 16.8991 9.96766 16.6822C10.0682 16.4654 10.2156 16.2686 10.4013 16.1031C10.7724 15.7717 11.2745 15.5856 11.7979 15.5856C12.3212 15.5856 12.8233 15.7717 13.1945 16.1031L16.3244 18.8614L24.4663 11.7433C24.6523 11.5785 24.8726 11.4483 25.1147 11.36C25.3567 11.2717 25.6157 11.2272 25.8769 11.2288C26.1381 11.2305 26.3964 11.2783 26.6371 11.3696C26.8777 11.461 27.0959 11.594 27.2793 11.761C27.4627 11.9281 27.6077 12.126 27.706 12.3435C27.8042 12.5609 27.8539 12.7936 27.852 13.0282C27.8502 13.2629 27.7969 13.4949 27.6952 13.711C27.5936 13.9272 27.4455 14.1232 27.2595 14.288L17.7309 22.7052C17.3334 23.004 16.8214 23.1509 16.3046 23.1145Z" fill="#EDEBEA"/>
</svg>
